<svg width="28" height="26" viewBox="0 0 28 26" fill="none" xmlns="http://www.w3.org/2000/svg">
<path fill-rule="evenodd" clip-rule="evenodd" d="M27.0041 0.335493C26.5293 -0.121597 25.7594 -0.121596 25.2845 0.335493L11.2694 13.826C11.2198 13.8737 11.1754 13.9246 11.1361 13.9779C10.0529 13.2522 8.73644 12.8268 7.31668 12.8268C3.61989 12.8268 0.623047 15.7114 0.623047 19.2698C0.623047 22.8283 3.61989 25.7129 7.31668 25.7129C11.0135 25.7129 14.0103 22.8283 14.0103 19.2698C14.0103 17.9113 13.5735 16.651 12.8277 15.6119C12.8844 15.5736 12.9384 15.53 12.9891 15.4812L19.4945 9.21928L22.9063 12.5033C23.3816 12.9608 24.1521 12.9608 24.6274 12.5033C25.1027 12.0458 25.1027 11.3041 24.6274 10.8466L21.2157 7.56257L23.1456 5.70486L24.6914 7.19278C25.1667 7.65027 25.9372 7.65027 26.4125 7.19278C26.8878 6.73529 26.8878 5.99356 26.4125 5.53607L24.8667 4.04815L27.0041 1.99076C27.479 1.53367 27.479 0.792582 27.0041 0.335493ZM7.31668 23.3455C4.97824 23.3455 3.08255 21.5208 3.08255 19.2698C3.08255 17.0189 4.97824 15.1942 7.31668 15.1942C9.65513 15.1942 11.5508 17.0189 11.5508 19.2698C11.5508 21.5208 9.65513 23.3455 7.31668 23.3455Z" fill="#F8F8F8"/>
</svg>
