<svg width="50" height="50" viewBox="0 0 50 50" fill="none" xmlns="http://www.w3.org/2000/svg">
<circle cx="25" cy="25" r="25" fill="#CE2020"/>
<path fill-rule="evenodd" clip-rule="evenodd" d="M30.3545 35.2323C28.3344 34.7262 24.1989 33.2993 20.4498 29.5502C16.7006 25.8011 15.2738 21.6656 14.7677 19.6455C14.4768 18.4846 15.0006 17.3643 15.8887 16.73L18.2169 15.0669C19.5792 14.0939 21.4743 14.4241 22.4272 15.8005L23.893 17.9178C24.5152 18.8165 24.3006 20.0483 23.4111 20.6837L22.2423 21.5185C22.4192 22.1951 22.9694 23.5846 24.6924 25.3076C26.4154 27.0306 27.8049 27.5807 28.4815 27.7576L29.3163 26.5888C29.9517 25.6994 31.1835 25.4847 32.0822 26.1069L34.1995 27.5727C35.5759 28.5257 35.9061 30.4207 34.933 31.783L33.27 34.1113C32.6356 34.9994 31.5154 35.5232 30.3545 35.2323ZM21.864 28.136C25.2734 31.5454 29.0358 32.8401 30.8405 33.2923C31.1043 33.3583 31.4232 33.2558 31.6425 32.9488L33.3056 30.6205C33.6299 30.1665 33.5199 29.5348 33.061 29.2171L30.9438 27.7513L30.0479 29.0056C29.6818 29.5182 29.0047 29.9202 28.2163 29.7501C27.2323 29.5378 25.4133 28.8569 23.2782 26.7218C21.1431 24.5867 20.4622 22.7677 20.2499 21.7837C20.0798 20.9953 20.4818 20.3182 20.9944 19.9521L22.2486 19.0562L20.7829 16.9389C20.4652 16.4801 19.8335 16.37 19.3794 16.6944L17.0512 18.3574C16.7441 18.5767 16.6416 18.8957 16.7077 19.1594C17.1599 20.9642 18.4546 24.7266 21.864 28.136Z" fill="#F8F8F8"/>
</svg>
