<svg width="24" height="24" viewBox="0 0 24 24" fill="none" xmlns="http://www.w3.org/2000/svg">
<path fill-rule="evenodd" clip-rule="evenodd" d="M19.7828 3.91831C20.1314 3.83571 20.3744 3.7545 20.5735 3.66921C20.8525 3.54967 21.0838 3.40647 21.4492 3.1653C21.7564 2.96262 22.15 2.94496 22.474 3.11934C22.798 3.29372 23.0001 3.63196 23.0001 3.99992C23.0001 5.08085 22.8654 5.96679 22.5535 6.74646C22.2912 7.40227 21.9226 7.93493 21.4817 8.41974C21.2955 11.7829 20.322 14.424 18.8337 16.4249C17.2911 18.4988 15.2387 19.8269 13.0751 20.5706C10.918 21.3121 8.6387 21.4779 6.59678 21.2268C4.56824 20.9774 2.69312 20.3058 1.38613 19.2892C1.0282 19.0108 0.902389 18.5265 1.07959 18.1091C1.25678 17.6917 1.69264 17.4458 2.14152 17.5099C3.42749 17.6937 4.66538 17.4013 5.68327 16.9832C5.48289 16.8742 5.29396 16.7562 5.11836 16.6347C4.19083 15.9925 3.44248 15.1209 3.10564 14.4472C2.96626 14.1684 2.96482 13.8406 3.10175 13.5606C3.17239 13.4162 3.27569 13.293 3.40111 13.1992C2.04685 12.0815 1.50007 10.5356 1.50007 9.49992C1.50007 9.19198 1.64194 8.90121 1.88467 8.71171C1.98672 8.63203 2.10182 8.57398 2.22316 8.53902C2.12182 8.24228 2.04318 7.94247 1.98324 7.65223C1.71747 6.36536 1.74106 4.9129 2.02992 3.75739C2.12878 3.36197 2.45772 3.06612 2.86136 3.00959C3.26501 2.95305 3.66257 3.14715 3.86625 3.5002C4.94376 5.36788 6.93123 6.50949 8.78094 7.18574C9.65058 7.50368 10.456 7.70628 11.0597 7.83084C11.19 6.61025 11.5308 5.60366 12.0539 4.80417C12.7439 3.74938 13.7064 3.12531 14.7401 2.84704C16.5228 2.36714 18.5009 2.91388 19.7828 3.91831ZM10.7485 9.80851C10.0634 9.67094 9.12179 9.43982 8.0942 9.06414C6.73698 8.56795 5.16096 7.79424 3.8408 6.59577C3.86442 6.81631 3.89797 7.03498 3.9419 7.24772C4.16315 8.31905 4.57427 8.91905 4.94728 9.10555C5.40349 9.33366 5.61492 9.86856 5.43795 10.3469C5.19835 10.9946 4.56817 11.0478 3.99558 10.9046C4.45611 11.5951 5.28385 12.2835 6.66447 12.5136C7.14065 12.593 7.49216 13.0012 7.49994 13.4839C7.50772 13.9665 7.16956 14.3859 6.69618 14.4806L5.82572 14.6547C5.95888 14.7704 6.10308 14.8839 6.25678 14.9903C6.95369 15.4728 7.65344 15.6809 8.25753 15.5298C8.70998 15.4167 9.18055 15.6314 9.3917 16.0472C9.60286 16.4631 9.49853 16.9696 9.14025 17.2682C8.49633 17.8042 7.74433 18.2342 6.99065 18.5912C6.63683 18.7588 6.24142 18.9242 5.81197 19.0698C6.14226 19.1402 6.48594 19.1981 6.84086 19.2417C8.61143 19.4594 10.5822 19.3127 12.425 18.6792C14.2614 18.048 15.959 16.9386 17.2289 15.2313C18.4971 13.5263 19.3821 11.1668 19.5008 7.96297C19.5101 7.71073 19.6145 7.47136 19.793 7.29287C20.2426 6.84322 20.6142 6.32784 20.797 5.71436C20.4771 5.81409 20.1169 5.90041 19.6878 5.98243C19.3624 6.04465 19.0273 5.94162 18.793 5.70733C18.0284 4.9428 16.5165 4.44004 15.26 4.77828C14.6687 4.93747 14.1312 5.28209 13.7275 5.89912C13.3154 6.5291 13.0001 7.51051 13.0001 8.99996C13.0001 9.28294 12.8802 9.55266 12.6701 9.74227C12.1721 10.1918 11.334 9.92609 10.7485 9.80851Z" fill="white"/>
</svg>
